<?xml version="1.0" encoding="UTF-8"?><svg id="Layer_1" xmlns="http://www.w3.org/2000/svg" xmlns:xlink="http://www.w3.org/1999/xlink" viewBox="0 0 32 32"><defs><style>.cls-1,.cls-2,.cls-3{fill:none;}.cls-4{clip-path:url(#clippath);}.cls-5{fill:#46b955;}.cls-2{stroke-width:.75px;}.cls-2,.cls-3{stroke:#000;stroke-miterlimit:10;}</style><clipPath id="clippath"><circle class="cls-1" cx="12.64" cy="13.17" r="5.31"/></clipPath></defs><g><g class="cls-4"><g><g><path d="M3.02,17.81l-.15,1.74h15.14v-1.97s.16-1.03,.16-1.03h-3.68l-1.26,1.26H3.02Z"/><path d="M2.87,17.02H12.86l1.26-1.26h3.9v-1.52h-3.26v.65h-3.77s0-.64,0-.64h-2.56l-1.01-1.01H2.87"/><polygon points="12.5 19.55 12.51 19.55 11.79 19.55 11.78 19.55 12.5 19.55"/><rect x="2.87" y="4.41" width="3.03" height="1.77"/><polygon points="8.78 13.39 10.98 13.39 10.98 12.51 9.07 12.51 8.07 11.5 2.87 11.5 2.87 12.39 7.77 12.39 8.78 13.39"/><rect x="14.75" y="12.51" width="3.26" height=".89"/><polygon points="14.23 4.41 14.23 7.33 14.33 7.44 18.01 7.44 18.01 4.41 14.23 4.41"/><polygon points="14.23 6.69 13.08 5.13 11 4.87 11 8.3 11.97 9.21 17.68 9.21 17.66 8.66 14.89 7.44 14.23 6.69"/><circle cx="8.17" cy="7.69" r=".5"/><path d="M10.18,4.41h-3.78v2.27H2.87v3.03h2.68l1.73-1.56c-.08-.14-.12-.3-.12-.46,0-.56,.45-1.01,1.01-1.01s1.01,.45,1.01,1.01-.45,1.01-1.01,1.01c-.2,0-.39-.06-.56-.17l-1.87,1.68H2.87v.5h5.57l1,1.01h1.54v-.6h3.77v.6h3.26v-1.77h-6.42l-1.41-1.41V4.41Z"/></g><rect x="11.79" y="11.96" width="2.22" height="2.09"/></g></g><circle class="cls-2" cx="12.64" cy="13.17" r="5.31"/></g><path class="cls-3" d="M12.12,5.36h11.86c1.66,0,3,1.34,3,3v15.29c0,1.66-1.34,3-3,3H8.02c-1.66,0-3-1.34-3-3V12.46c0-3.92,3.18-7.1,7.1-7.1Z"/><g><line class="cls-3" x1="19.86" y1="9.24" x2="24.71" y2="9.24"/><line class="cls-3" x1="19.86" y1="11.56" x2="24.71" y2="11.56"/><line class="cls-3" x1="19.86" y1="13.89" x2="24.71" y2="13.89"/><line class="cls-3" x1="19.86" y1="16.21" x2="24.71" y2="16.21"/></g><circle class="cls-5" cx="23.63" cy="23.25" r="1.08"/><g><circle cx="11.67" cy="23.25" r="1.08"/><circle cx="14.92" cy="23.25" r="1.08"/><circle cx="8.41" cy="23.25" r="1.08"/></g><g><rect class="cls-3" x="29.23" y="10.01" width="2.23" height="5.43"/><polygon class="cls-3" points="29.23 9.11 26.98 8.18 26.98 17.27 29.23 16.34 29.23 9.11"/></g><g><rect class="cls-3" x=".51" y="16.56" width="2.25" height="5.43"/><polygon class="cls-3" points="2.77 22.89 5.02 23.82 5.02 14.73 2.77 15.66 2.77 22.89"/></g></svg>