<svg width="452" height="512" viewBox="0 0 452 512" fill="none" xmlns="http://www.w3.org/2000/svg">
<g clip-path="url(#clip0_4119_72840)">
<path d="M206.296 0V217.755C206.296 245.311 183.887 267.642 156.235 267.642H2.1709" fill="black"/>
<path d="M449.811 267.661H295.765C268.113 267.661 245.704 245.329 245.704 217.773V0" fill="black"/>
<path d="M0 303.284H158.406C186.058 303.284 208.467 325.615 208.467 353.171V511.688H203.518C152.979 511.688 104.059 492.749 67.5387 457.932C61.9458 452.597 56.4264 446.767 51.0726 440.387C3.77157 383.954 0.331163 321.728 0 303.284Z" fill="black"/>
<path d="M400.909 440.699C395.555 447.079 390.036 452.909 384.443 458.244C347.923 493.079 299.003 512 248.464 512H243.515V353.483C243.515 325.927 265.923 303.596 293.575 303.596H451.981C451.65 322.058 448.21 384.284 400.89 440.699H400.909Z" fill="black"/>
</g>
<defs>
<clipPath id="clip0_4119_72840">
<rect width="452" height="512" fill="white"/>
</clipPath>
</defs>
</svg>
